<svg xmlns="http://www.w3.org/2000/svg" viewBox="0 0 2000 2000">
<g data-hi-editor="1" data-hi-name="My Home">
<g id="bg-6953a389" class="hi-bg-element" data-bg-type="property-lines" data-bg-edit-type="closed" data-bg-layer="10" style=""><path class="property-lines" d=" M 21.762784936460413,21.762784936460413 L 1991.2948216861278,21.762784936460413 L 1980.4134292178976,1969.5320367496674 L 32.64417740469062,1969.5320367496674 Z" /></g><g id="bg-92128b69" class="hi-bg-element" data-bg-type="grass" data-bg-edit-type="closed" data-bg-layer="20" style=""><path class="grass" d=" M 21.762784936460413,21.762784936460413 L 1991.2948216861278,21.762784936460413 L 1980.4134292178976,1969.5320367496674 L 32.64417740469062,1969.5320367496674 Z" /></g><g id="bg-58757953" class="hi-bg-element" data-bg-type="pavement" data-bg-edit-type="closed" data-bg-layer="40" style=""><path class="pavement" d=" M 990.2067146089488,1545.1577304886894 L 1251.3601338464737,1545.1577304886894 L 1251.3601338464737,1643.0902627027613 L 1196.9531715053226,1643.0902627027613 L 1196.9531715053226,1958.6506442814373 L 1044.6136769501,1958.6506442814373 L 1044.6136769501,1643.0902627027613 L 990.2067146089488,1643.0902627027613 Z" /></g><g id="bg-f931a0bc" class="hi-bg-element" data-bg-type="pavement" data-bg-edit-type="closed" data-bg-layer="40" style=""><path class="pavement" d=" M 1838.9553271309048,1273.1229187829342 L 1958.6506442814373,1273.1229187829342 L 1958.6506442814373,1762.7855798532935 L 1196.9531715053226,1762.7855798532935 L 1196.9531715053226,1643.0902627027613 L 1838.9553271309048,1643.0902627027613 Z" /></g><g id="bg-77c99d32" class="hi-bg-element" data-bg-type="mulch" data-bg-edit-type="closed" data-bg-layer="60" style=""><path class="mulch" d=" M 272.03481170575515,1545.1577304886894 L 903.1555748631072,1545.1577304886894 L 904.028010438695,1592.5882049179083 L 899.3439274830541,1620.6927026517537 L 889.9757615717723,1644.1131174299583 L 871.2394297492087,1662.849449252522 L 843.1349320153632,1672.2176151638039 L 810.3463513258769,1676.9016981194447 L 369.96734391982704,1675.7344401074517 L 332.5698898505044,1672.2176151638039 L 304.46539211665896,1662.849449252522 L 285.72906029409535,1648.7972003855994 L 276.3608943828135,1630.0608685630357 L 271.6768114271726,1616.0086196961129 L 272.03481170575515,1599.5646928298404 Z" /></g><g id="bg-63f0dff5" class="hi-bg-element" data-bg-type="interior-floors" data-bg-edit-type="closed" data-bg-layer="130" style=""><path class="interior-floors" d=" M 219.50507403902773,292.673432052037 L 1838.9553271309048,293.7975966422156 L 1850.1141954718053,1546.9881408464812 L 219.50507403902773,1546.9881408464812 Z" /></g><g id="bg-80940722" class="hi-bg-element" data-bg-type="dead-space" data-bg-edit-type="closed" data-bg-layer="135" style=""><path class="dead-space" d=" M 1077.2578543547904,1099.020639291251 L 1207.834563973553,1099.020639291251 L 1207.834563973553,1207.834563973553 L 1077.2578543547904,1207.834563973553 Z" /></g><g id="bg-e557283b" class="hi-bg-element" data-bg-type="countertops" data-bg-edit-type="closed" data-bg-layer="150" style=""><path class="countertops" d=" M 1381.9368434652363,968.4439296724884 L 1566.9205154251497,968.4439296724884 L 1566.9205154251497,1088.1392468230206 L 1381.9368434652363,1088.1392468230206 Z" /></g><g id="bg-85fbf6a6" class="hi-bg-element" data-bg-type="countertops" data-bg-edit-type="closed" data-bg-layer="150" style=""><path class="countertops" d=" M 1381.9368434652363,1088.1392468230206 L 1675.7344401074517,1088.1392468230206 L 1675.7344401074517,1196.9531715053226 L 1381.9368434652363,1196.9531715053226 Z" /></g><g id="bg-ef71d1c8" class="hi-bg-element" data-bg-type="shelves" data-bg-edit-type="closed" data-bg-layer="160" style=""><path class="shelves" d=" M 924.9183597995676,293.7975966422156 L 990.2067146089488,293.7975966422156 L 990.2067146089488,609.3579782208916 L 924.9183597995676,609.3579782208916 Z" /></g><g id="bg-68ab7ad2" class="hi-bg-element" data-bg-type="shelves" data-bg-edit-type="closed" data-bg-layer="160" style=""><path class="shelves" d=" M 990.2067146089488,293.7975966422156 L 1044.6136769501,293.7975966422156 L 1044.6136769501,609.3579782208916 L 990.2067146089488,609.3579782208916 Z" /></g><g id="bg-434d8745" class="hi-bg-element" data-bg-type="shelves" data-bg-edit-type="closed" data-bg-layer="160" style=""><path class="shelves" d=" M 837.8672200537259,609.3579782208916 L 1131.6648166959415,609.3579782208916 L 1131.6648166959415,652.8835480938124 L 837.8672200537259,652.8835480938124 Z" /></g><g id="bg-f23adfde" class="hi-bg-element" data-bg-type="transitions" data-bg-edit-type="open" data-bg-layer="190" style=""><path class="transitions" d=" M 1001.088107077179,1643.0902627027613 L 1251.3601338464737,1643.0902627027613" /><path d=" M 1001.088107077179,1643.0902627027613 L 1251.3601338464737,1643.0902627027613" class="hi-bg-hit-area" /></g><g id="bg-6b868565" class="hi-bg-element" data-bg-type="transitions" data-bg-edit-type="open" data-bg-layer="190" style=""><path class="transitions" d=" M 1838.9553271309048,1479.8693756793082 L 1958.6506442814373,1479.8693756793082" /><path d=" M 1838.9553271309048,1479.8693756793082 L 1958.6506442814373,1479.8693756793082" class="hi-bg-hit-area" /></g><g id="bg-831ff843" class="hi-bg-element" data-bg-type="stairs" data-bg-edit-type="icon" data-bg-layer="200" transform="scale(2.1220496836042306 2.1220496836042306) translate(509.7007250701858, 570.2084586705328) rotate(0, 0, 0)"><path class="stairs" d="M 0,0 L 60,0 L 60,10 L 0,10 Z M 0,10 L 60,10 L 60,20 L 0,20 Z M 0,20 L 60,20 L 60,30 L 0,30 Z M 0,30 L 60,30 L 60,40 L 0,40 Z M 0,40 L 60,40 L 60,50 L 0,50 Z M 0,50 L 60,50 L 60,60 L 0,60 Z M 0,60 L 60,60 L 60,70 L 0,70 Z M 0,70 L 60,70 L 60,80 L 0,80 Z" /><rect x="0" y="0" width="60" height="80" fill="transparent" class="hi-bg-hit-area" /></g><g id="bg-a2483743" class="hi-bg-element" data-bg-type="interior-walls" data-bg-edit-type="open" data-bg-layer="210" style=""><path class="interior-wall-stroke" d=" M 217.62784936460412,914.0369673313373 L 837.8672200537259,914.0369673313373 L 837.8672200537259,881.3927899266467 M 837.8672200537259,293.7975966422156 L 837.8672200537259,609.3579782208916 L 1131.6648166959415,609.3579782208916 L 1131.6648166959415,304.6789891104458 M 990.2067146089488,304.6789891104458 L 990.2067146089488,609.3579782208916 M 837.8672200537259,707.2905104349634 L 1131.6648166959415,707.2905104349634 L 1131.6648166959415,609.3579782208916 L 837.8672200537259,609.3579782208916 L 837.8672200537259,772.5788652443447 M 1131.6648166959415,707.2905104349634 L 1164.3089941006322,707.2905104349634" /><path d=" M 217.62784936460412,914.0369673313373 L 837.8672200537259,914.0369673313373 L 837.8672200537259,881.3927899266467 M 837.8672200537259,293.7975966422156 L 837.8672200537259,609.3579782208916 L 1131.6648166959415,609.3579782208916 L 1131.6648166959415,304.6789891104458 M 990.2067146089488,304.6789891104458 L 990.2067146089488,609.3579782208916 M 837.8672200537259,707.2905104349634 L 1131.6648166959415,707.2905104349634 L 1131.6648166959415,609.3579782208916 L 837.8672200537259,609.3579782208916 L 837.8672200537259,772.5788652443447 M 1131.6648166959415,707.2905104349634 L 1164.3089941006322,707.2905104349634" class="hi-bg-hit-area" /></g><g id="bg-400e9d39" class="hi-bg-element" data-bg-type="interior-walls" data-bg-edit-type="open" data-bg-layer="210" style=""><path class="interior-wall-stroke" d=" M 1077.2578543547904,1207.834563973553 L 1077.2578543547904,914.0369673313373 L 1381.9368434652363,914.0369673313373 L 1381.9368434652363,1088.1392468230206 L 1838.9553271309048,1088.1392468230206 M 1273.1229187829342,707.2905104349634 L 1838.9553271309048,707.2905104349634 M 1381.9368434652363,707.2905104349634 L 1381.9368434652363,794.3416501808051" /><path d=" M 1077.2578543547904,1207.834563973553 L 1077.2578543547904,914.0369673313373 L 1381.9368434652363,914.0369673313373 L 1381.9368434652363,1088.1392468230206 L 1838.9553271309048,1088.1392468230206 M 1273.1229187829342,707.2905104349634 L 1838.9553271309048,707.2905104349634 M 1381.9368434652363,707.2905104349634 L 1381.9368434652363,794.3416501808051" class="hi-bg-hit-area" /></g><g id="bg-1973ec36" class="hi-bg-element" data-bg-type="exterior-walls" data-bg-edit-type="open" data-bg-layer="220" style=""><path class="exterior-wall-stroke" d=" M 1055.49506941833,1545.1577304886894 L 217.62784936460412,1545.1577304886894 L 217.62784936460412,293.7975966422156 L 1838.9553271309048,293.7975966422156 L 1838.9553271309048,1305.7670961876247 M 1838.9553271309048,1425.4624133381571 L 1838.9553271309048,1545.1577304886894 L 1175.1903865688623,1545.1577304886894" /><path d=" M 1055.49506941833,1545.1577304886894 L 217.62784936460412,1545.1577304886894 L 217.62784936460412,293.7975966422156 L 1838.9553271309048,293.7975966422156 L 1838.9553271309048,1305.7670961876247 M 1838.9553271309048,1425.4624133381571 L 1838.9553271309048,1545.1577304886894 L 1175.1903865688623,1545.1577304886894" class="hi-bg-hit-area" /></g><g id="bg-a675456f" class="hi-bg-element" data-bg-type="door-standard" data-bg-edit-type="icon" data-bg-layer="240" transform="scale(1.2878961630546426 1.2878961630546426) translate(917.5577476515272, 1192.9941482670415) rotate(175, 0, 0)"><path class="doors" d="M 0,0 L 70.71,70.71" /><path class="door-arcs" d="M 100,0 C 100,26.52 89.46,51.96 70.71,70.71" /><rect x="0" y="0" width="100" height="70.71" fill="transparent" class="hi-bg-hit-area" /></g><g id="bg-f4f141ea" class="hi-bg-element" data-bg-type="door-standard" data-bg-edit-type="icon" data-bg-layer="240" transform="scale(-1.13815062325021 1.13815062325021) translate(-733.3290822022855, 774.4078180700437) rotate(270, 0, 0)"><path class="doors" d="M 0,0 L 70.71,70.71" /><path class="door-arcs" d="M 100,0 C 100,26.52 89.46,51.96 70.71,70.71" /><rect x="0" y="0" width="100" height="70.71" fill="transparent" class="hi-bg-hit-area" /></g><g id="bg-ed414e4c" class="hi-bg-element" data-bg-type="door-standard" data-bg-edit-type="icon" data-bg-layer="240" transform="scale(-1.111541536226149 1.111541536226149) translate(-1046.9500262136307, 636.314890688797) rotate(180, 0, 0)"><path class="doors" d="M 0,0 L 70.71,70.71" /><path class="door-arcs" d="M 100,0 C 100,26.52 89.46,51.96 70.71,70.71" /><rect x="0" y="0" width="100" height="70.71" fill="transparent" class="hi-bg-hit-area" /></g><g id="bg-58886c1d" class="hi-bg-element" data-bg-type="door-standard" data-bg-edit-type="icon" data-bg-layer="240" transform="scale(-1.2232799153640204 1.2232799153640204) translate(-1128.5118728750529, 745.4226692921069) rotate(270, 0, 0)"><path class="doors" d="M 0,0 L 70.71,70.71" /><path class="door-arcs" d="M 100,0 C 100,26.52 89.46,51.96 70.71,70.71" /><rect x="0" y="0" width="100" height="70.71" fill="transparent" class="hi-bg-hit-area" /></g><g id="bg-1c8481e6" class="hi-bg-element" data-bg-type="door-standard" data-bg-edit-type="icon" data-bg-layer="240" transform="scale(-1.2877442375572465 1.2877442375572465) translate(-1427.5930943341953, 1113.7052197709975) rotate(270, 0, 0)"><path class="doors" d="M 0,0 L 70.71,70.71" /><path class="door-arcs" d="M 100,0 C 100,26.52 89.46,51.96 70.71,70.71" /><rect x="0" y="0" width="100" height="70.71" fill="transparent" class="hi-bg-hit-area" /></g><g id="bg-9ac0d0cf" class="hi-bg-element" data-bg-type="window-standard" data-bg-edit-type="icon" data-bg-layer="250" transform="scale(1.6330540179952042 1.6330540179952042) translate(270.63030612505963, 176.14029968630268) rotate(0, 0, 0)"><path class="windows" d="M 0,0 L 105,0 L 105,9 L 0,9 Z" /><rect x="0" y="0" width="105" height="9" fill="transparent" class="hi-bg-hit-area" /></g><g id="bg-0e0aa687" class="hi-bg-element" data-bg-type="window-standard" data-bg-edit-type="icon" data-bg-layer="250" transform="scale(1.5515005169718687 1.5515005169718687) translate(144.70715690272507, 407.88035077862247) rotate(90, 0, 0)"><path class="windows" d="M 0,0 L 105,0 L 105,9 L 0,9 Z" /><rect x="0" y="0" width="105" height="9" fill="transparent" class="hi-bg-hit-area" /></g><g id="bg-ec0db250" class="hi-bg-element" data-bg-type="window-standard" data-bg-edit-type="icon" data-bg-layer="250" transform="scale(1.541754124134481 1.541754124134481) translate(142.7290881683745, 743.8851185734559) rotate(90, 0, 0)"><path class="windows" d="M 0,0 L 105,0 L 105,9 L 0,9 Z" /><rect x="0" y="0" width="105" height="9" fill="transparent" class="hi-bg-hit-area" /></g><g id="bg-c0d82c5f" class="hi-bg-element" data-bg-type="window-standard" data-bg-edit-type="icon" data-bg-layer="250" transform="scale(1.4737957180218078 1.4737957180218078) translate(359.68692873924863, 1044.8023025868222) rotate(0, 0, 0)"><path class="windows" d="M 0,0 L 105,0 L 105,9 L 0,9 Z" /><rect x="0" y="0" width="105" height="9" fill="transparent" class="hi-bg-hit-area" /></g><g id="bg-2dd6bed9" class="hi-bg-element" data-bg-type="window-standard" data-bg-edit-type="icon" data-bg-layer="250" transform="scale(1.5051501997863896 1.5051501997863896) translate(1021.7036222478315, 1022.303610682145) rotate(0, 0, 0)"><path class="windows" d="M 0,0 L 105,0 L 105,9 L 0,9 Z" /><rect x="0" y="0" width="105" height="9" fill="transparent" class="hi-bg-hit-area" /></g><g id="bg-1c48d082" class="hi-bg-element" data-bg-type="window-standard" data-bg-edit-type="icon" data-bg-layer="250" transform="scale(1.3662538774719857 1.3662538774719857) translate(1351.5973781144771, 528.0373323442393) rotate(90, 0, 0)"><path class="windows" d="M 0,0 L 105,0 L 105,9 L 0,9 Z" /><rect x="0" y="0" width="105" height="9" fill="transparent" class="hi-bg-hit-area" /></g><g id="bg-7a48e6b6" class="hi-bg-element" data-bg-type="window-standard" data-bg-edit-type="icon" data-bg-layer="250" transform="scale(1.4536733397152435 1.4536733397152435) translate(1004.7473048933712, 197.219987751336) rotate(0, 0, 0)"><path class="windows" d="M 0,0 L 105,0 L 105,9 L 0,9 Z" /><rect x="0" y="0" width="105" height="9" fill="transparent" class="hi-bg-hit-area" /></g><g id="bg-1ec0d997" class="hi-bg-element" data-bg-type="window-standard" data-bg-edit-type="icon" data-bg-layer="250" transform="scale(1.4407926989155289 1.4407926989155289) translate(1281.4129055123378, 273.5736777329555) rotate(90, 0, 0)"><path class="windows" d="M 0,0 L 105,0 L 105,9 L 0,9 Z" /><rect x="0" y="0" width="105" height="9" fill="transparent" class="hi-bg-hit-area" /></g><g id="bg-c9248787" class="hi-bg-element" data-bg-type="window-standard" data-bg-edit-type="icon" data-bg-layer="250" transform="scale(1.5429193072333054 1.5429193072333054) translate(883.2899915661335, 997.7019731842762) rotate(0, 0, 0)"><path class="windows" d="M 0,0 L 105,0 L 105,9 L 0,9 Z" /><rect x="0" y="0" width="105" height="9" fill="transparent" class="hi-bg-hit-area" /></g><g id="bg-17b3e787" class="hi-bg-element" data-bg-type="sliding-door" data-bg-edit-type="icon" data-bg-layer="260" transform="scale(2.0787154432591337 2.0787154432591337) translate(413.95705734406073, 336.6814446334706) rotate(0, 0, 0)"><path class="sliding-doors" d="M 0,0 L 120,0 L 120,9 L 0,9 Z" /><line class="sliding-doors-center" x1="60" y1="-2" x2="60" y2="11" /><rect x="0" y="0" width="120" height="9" fill="transparent" class="hi-bg-hit-area" /></g><g id="bg-9b3640e7" class="hi-bg-element" data-bg-type="sliding-door" data-bg-edit-type="icon" data-bg-layer="260" transform="scale(1.8840749951546911 1.8840749951546911) translate(450.0095890129806, 181.341953187801) rotate(90, 0, 0)"><path class="sliding-doors" d="M 0,0 L 120,0 L 120,9 L 0,9 Z" /><line class="sliding-doors-center" x1="60" y1="-2" x2="60" y2="11" /><rect x="0" y="0" width="120" height="9" fill="transparent" class="hi-bg-hit-area" /></g><g id="bg-c5391803" class="hi-bg-element" data-bg-type="sliding-door" data-bg-edit-type="icon" data-bg-layer="260" transform="scale(1.838185613831079 1.838185613831079) translate(620.4448900572539, 186.82961890425827) rotate(90, 0, 0)"><path class="sliding-doors" d="M 0,0 L 120,0 L 120,9 L 0,9 Z" /><line class="sliding-doors-center" x1="60" y1="-2" x2="60" y2="11" /><rect x="0" y="0" width="120" height="9" fill="transparent" class="hi-bg-hit-area" /></g></g>


</svg>
