<svg xmlns="http://www.w3.org/2000/svg" viewBox="0 0 2000 2000">
<g data-hi-editor="1" data-hi-name="Upstairs">
<g id="bg-6953a389" class="hi-bg-element" data-bg-type="property-lines" data-bg-edit-type="closed" data-bg-layer="10" style=""><path class="property-lines" d=" M 21.762784936460413,21.762784936460413 L 1991.2948216861278,21.762784936460413 L 1980.4134292178976,1969.5320367496674 L 32.64417740469062,1969.5320367496674 Z"></path></g><g id="bg-92128b69" class="hi-bg-element" data-bg-type="grass" data-bg-edit-type="closed" data-bg-layer="20" style=""><path class="grass" d=" M 21.762784936460413,21.762784936460413 L 1991.2948216861278,21.762784936460413 L 1980.4134292178976,1969.5320367496674 L 32.64417740469062,1969.5320367496674 Z"></path></g><g id="bg-c27735e5" class="hi-bg-element" data-bg-type="interior-floors" data-bg-edit-type="closed" data-bg-layer="130" style=""><path class="interior-floors" d=" M 225.38552927899661,296.5599069460482 L 1838.6714230654989,296.5599069460482 L 1838.6714230654989,1542.1115161194507 L 225.38552927899661,1542.1115161194507 Z"></path></g><g id="bg-1e97e705" class="hi-bg-element" data-bg-type="dead-space" data-bg-edit-type="closed" data-bg-layer="135" style=""><path class="dead-space" d=" M 217.62784936460412,1218.7159564417832 L 1838.9553271309048,1218.7159564417832 L 1838.9553271309048,1545.1577304886894 L 217.62784936460412,1545.1577304886894 Z"></path></g><g id="bg-34ba1eb2" class="hi-bg-element" data-bg-type="dead-space" data-bg-edit-type="closed" data-bg-layer="135" style=""><path class="dead-space" d=" M 217.62784936460412,293.7975966422156 L 859.6300049901863,293.7975966422156 L 859.6300049901863,478.7812686021291 L 217.62784936460412,478.7812686021291 Z"></path></g><g id="bg-93aea48b" class="hi-bg-element" data-bg-type="dead-space" data-bg-edit-type="closed" data-bg-layer="135" style=""><path class="dead-space" d=" M 1262.241526314704,293.7975966422156 L 1838.9553271309048,293.7975966422156 L 1838.9553271309048,489.6626610703593 L 1262.241526314704,489.6626610703593 Z"></path></g><g id="bg-25dc26de" class="hi-bg-element" data-bg-type="countertops" data-bg-edit-type="closed" data-bg-layer="150" style=""><path class="countertops" d=" M 1120.7834242277113,293.7975966422156 L 1262.241526314704,293.7975966422156 L 1262.241526314704,544.0696234115103 L 1120.7834242277113,544.0696234115103 Z"></path></g><g id="bg-831ff843" class="hi-bg-element" data-bg-type="stairs" data-bg-edit-type="icon" data-bg-layer="200" transform="scale(2.1220496836042306 2.1220496836042306) translate(509.70064219689715, 490.2151207399129) rotate(0, 0, 0)"><path class="stairs" d="M 0,0 L 60,0 L 60,10 L 0,10 Z M 0,10 L 60,10 L 60,20 L 0,20 Z M 0,20 L 60,20 L 60,30 L 0,30 Z M 0,30 L 60,30 L 60,40 L 0,40 Z M 0,40 L 60,40 L 60,50 L 0,50 Z M 0,50 L 60,50 L 60,60 L 0,60 Z M 0,60 L 60,60 L 60,70 L 0,70 Z M 0,70 L 60,70 L 60,80 L 0,80 Z"></path><rect x="0" y="0" width="60" height="80" fill="transparent" class="hi-bg-hit-area"></rect></g><g id="bg-a2483743" class="hi-bg-element" data-bg-type="interior-walls" data-bg-edit-type="open" data-bg-layer="210" style=""><path class="interior-wall-stroke" d=" M 859.6300049901863,293.7975966422156 L 859.6300049901863,848.7486125219561 M 859.6300049901863,598.4765857526613 L 1022.8508920136394,598.4765857526613 L 1022.8508920136394,805.2230426490353 M 1229.5973489100134,805.2230426490353 L 1262.241526314704,805.2230426490353 L 1262.241526314704,293.7975966422156 M 859.6300049901863,805.2230426490353 L 1131.6648166959415,805.2230426490353"></path><path d=" M 859.6300049901863,293.7975966422156 L 859.6300049901863,848.7486125219561 M 859.6300049901863,598.4765857526613 L 1022.8508920136394,598.4765857526613 L 1022.8508920136394,805.2230426490353 M 1229.5973489100134,805.2230426490353 L 1262.241526314704,805.2230426490353 L 1262.241526314704,293.7975966422156 M 859.6300049901863,805.2230426490353 L 1131.6648166959415,805.2230426490353" class="hi-bg-hit-area"></path></g><g id="bg-400e9d39" class="hi-bg-element" data-bg-type="interior-walls" data-bg-edit-type="open" data-bg-layer="210" style=""><path class="interior-wall-stroke" d=" M 1077.2578543547904,1218.7159564417832 L 1077.2578543547904,1001.088107077179 L 848.7486125219561,1001.088107077179 L 848.7486125219561,957.5625372042582 M 1262.241526314704,837.8672200537259 L 1262.241526314704,805.2230426490353 M 1262.241526314704,957.5625372042582 L 1262.241526314704,1001.088107077179 L 1207.834563973553,1001.088107077179 L 1207.834563973553,1218.7159564417832 M 848.7486125219561,1001.088107077179 L 848.7486125219561,1218.7159564417832"></path><path d=" M 1077.2578543547904,1218.7159564417832 L 1077.2578543547904,1001.088107077179 L 848.7486125219561,1001.088107077179 L 848.7486125219561,957.5625372042582 M 1262.241526314704,837.8672200537259 L 1262.241526314704,805.2230426490353 M 1262.241526314704,957.5625372042582 L 1262.241526314704,1001.088107077179 L 1207.834563973553,1001.088107077179 L 1207.834563973553,1218.7159564417832 M 848.7486125219561,1001.088107077179 L 848.7486125219561,1218.7159564417832" class="hi-bg-hit-area"></path></g><g id="bg-f59c8437" class="hi-bg-element" data-bg-type="interior-walls" data-bg-edit-type="open" data-bg-layer="210" style=""><path class="interior-wall-stroke" d=" M 217.62784936460412,478.7812686021291 L 859.6300049901863,478.7812686021291 M 217.62784936460412,1218.7159564417832 L 1838.9553271309048,1218.7159564417832 M 1262.241526314704,489.6626610703593 L 1838.9553271309048,489.6626610703593"></path><path d=" M 217.62784936460412,478.7812686021291 L 859.6300049901863,478.7812686021291 M 217.62784936460412,1218.7159564417832 L 1838.9553271309048,1218.7159564417832 M 1262.241526314704,489.6626610703593 L 1838.9553271309048,489.6626610703593" class="hi-bg-hit-area"></path></g><g id="bg-1973ec36" class="hi-bg-element" data-bg-type="exterior-walls" data-bg-edit-type="open" data-bg-layer="220" style=""><path class="exterior-wall-stroke" d=" M 1175.1903865688623,1545.1577304886894 L 217.62784936460412,1545.1577304886894 L 217.62784936460412,293.7975966422156 L 1838.9553271309048,293.7975966422156 L 1838.9553271309048,1305.7670961876247 M 1838.9553271309048,1305.7670961876247 L 1838.9553271309048,1545.1577304886894 L 1175.1903865688623,1545.1577304886894"></path><path d=" M 1175.1903865688623,1545.1577304886894 L 217.62784936460412,1545.1577304886894 L 217.62784936460412,293.7975966422156 L 1838.9553271309048,293.7975966422156 L 1838.9553271309048,1305.7670961876247 M 1838.9553271309048,1305.7670961876247 L 1838.9553271309048,1545.1577304886894 L 1175.1903865688623,1545.1577304886894" class="hi-bg-hit-area"></path></g><g id="bg-f4f141ea" class="hi-bg-element" data-bg-type="door-standard" data-bg-edit-type="icon" data-bg-layer="240" transform="scale(1.13815062325021 1.13815062325021) translate(758.2183557515999, 738.0774654526311) rotate(90, 0, 0)"><path class="doors" d="M 0,0 L 70.71,70.71"></path><path class="door-arcs" d="M 100,0 C 100,26.52 89.46,51.96 70.71,70.71"></path><rect x="0" y="0" width="100" height="70.71" fill="transparent" class="hi-bg-hit-area"></rect></g><g id="bg-ed414e4c" class="hi-bg-element" data-bg-type="door-standard" data-bg-edit-type="icon" data-bg-layer="240" transform="scale(-1.111541536226149 1.111541536226149) translate(-1009.7500277316166, 722.4621142197664) rotate(180, 0, 0)"><path class="doors" d="M 0,0 L 70.71,70.71"></path><path class="door-arcs" d="M 100,0 C 100,26.52 89.46,51.96 70.71,70.71"></path><rect x="0" y="0" width="100" height="70.71" fill="transparent" class="hi-bg-hit-area"></rect></g><g id="bg-58886c1d" class="hi-bg-element" data-bg-type="door-standard" data-bg-edit-type="icon" data-bg-layer="240" transform="scale(-1.2232799153640204 1.2232799153640204) translate(-1028.884748995511, 677.8186197242902) rotate(85, 0, 0)"><path class="doors" d="M 0,0 L 70.71,70.71"></path><path class="door-arcs" d="M 100,0 C 100,26.52 89.46,51.96 70.71,70.71"></path><rect x="0" y="0" width="100" height="70.71" fill="transparent" class="hi-bg-hit-area"></rect></g><g id="bg-0e0aa687" class="hi-bg-element" data-bg-type="window-standard" data-bg-edit-type="icon" data-bg-layer="250" transform="scale(1.5515005169718687 1.5515005169718687) translate(146.10984125796264, 499.0553752123392) rotate(90, 0, 0)"><path class="windows" d="M 0,0 L 105,0 L 105,9 L 0,9 Z"></path><rect x="0" y="0" width="105" height="9" fill="transparent" class="hi-bg-hit-area"></rect></g><g id="bg-7a48e6b6" class="hi-bg-element" data-bg-type="window-standard" data-bg-edit-type="icon" data-bg-layer="250" transform="scale(1.4536733397152435 1.4536733397152435) translate(751.7391776881038, 200.21413127250958) rotate(0, 0, 0)"><path class="windows" d="M 0,0 L 105,0 L 105,9 L 0,9 Z"></path><rect x="0" y="0" width="105" height="9" fill="transparent" class="hi-bg-hit-area"></rect></g><g id="bg-1ec0d997" class="hi-bg-element" data-bg-type="window-standard" data-bg-edit-type="icon" data-bg-layer="250" transform="scale(1.4407926989155289 1.4407926989155289) translate(1281.4128179442728, 527.3331375227327) rotate(90, 0, 0)"><path class="windows" d="M 0,0 L 105,0 L 105,9 L 0,9 Z"></path><rect x="0" y="0" width="105" height="9" fill="transparent" class="hi-bg-hit-area"></rect></g><g id="bg-43a4b221" class="hi-bg-element" data-bg-type="sliding-door" data-bg-edit-type="icon" data-bg-layer="260" transform="scale(1.4374319663218258 1.4374319663218258) translate(595.003750158413, 719.1520529688137) rotate(90, 0, 0)"><path class="sliding-doors" d="M 0,0 L 120,0 L 120,9 L 0,9 Z"></path><line class="sliding-doors-center" x1="60" y1="-2" x2="60" y2="11"></line><rect x="0" y="0" width="120" height="9" fill="transparent" class="hi-bg-hit-area"></rect></g><g id="bg-3762e60c" class="hi-bg-element" data-bg-type="sliding-door" data-bg-edit-type="icon" data-bg-layer="260" transform="scale(1.4425239894562871 1.4425239894562871) translate(713.5962563230389, 426.9508240336943) rotate(90, 0, 0)"><path class="sliding-doors" d="M 0,0 L 120,0 L 120,9 L 0,9 Z"></path><line class="sliding-doors-center" x1="60" y1="-2" x2="60" y2="11"></line><rect x="0" y="0" width="120" height="9" fill="transparent" class="hi-bg-hit-area"></rect></g><g id="bg-c05d9b90" class="hi-bg-element" data-bg-type="sliding-door" data-bg-edit-type="icon" data-bg-layer="260" transform="scale(1.4864541464745629 1.4864541464745629) translate(837.450205144662, 814.0250280754217) rotate(0, 0, 0)"><path class="sliding-doors" d="M 0,0 L 120,0 L 120,9 L 0,9 Z"></path><line class="sliding-doors-center" x1="60" y1="-2" x2="60" y2="11"></line><rect x="0" y="0" width="120" height="9" fill="transparent" class="hi-bg-hit-area"></rect></g><g id="bg-3f5eb467" class="hi-bg-element" data-bg-type="sliding-door" data-bg-edit-type="icon" data-bg-layer="260" transform="scale(1.2747213748161301 1.2747213748161301) translate(488.27584866054275, 950.9428270337767) rotate(0, 0, 0)"><path class="sliding-doors" d="M 0,0 L 120,0 L 120,9 L 0,9 Z"></path><line class="sliding-doors-center" x1="60" y1="-2" x2="60" y2="11"></line><rect x="0" y="0" width="120" height="9" fill="transparent" class="hi-bg-hit-area"></rect></g><g id="bg-08af485f" class="hi-bg-element" data-bg-type="sliding-door" data-bg-edit-type="icon" data-bg-layer="260" transform="scale(1.3382506781008123 1.3382506781008123) translate(343.1305784281881, 352.8878686323562) rotate(0, 0, 0)"><path class="sliding-doors" d="M 0,0 L 120,0 L 120,9 L 0,9 Z"></path><line class="sliding-doors-center" x1="60" y1="-2" x2="60" y2="11"></line><rect x="0" y="0" width="120" height="9" fill="transparent" class="hi-bg-hit-area"></rect></g><g id="bg-2eeacc59" class="hi-bg-element" data-bg-type="sliding-door" data-bg-edit-type="icon" data-bg-layer="260" transform="scale(1.1976257380148745 1.1976257380148745) translate(1252.0237631623106, 405.2268639552499) rotate(0, 0, 0)"><path class="sliding-doors" d="M 0,0 L 120,0 L 120,9 L 0,9 Z"></path><line class="sliding-doors-center" x1="60" y1="-2" x2="60" y2="11"></line><rect x="0" y="0" width="120" height="9" fill="transparent" class="hi-bg-hit-area"></rect></g></g>
</svg>
